<?xml version="1.0" encoding="UTF-8"?>
<svg xmlns="http://www.w3.org/2000/svg" width="105" height="35" viewBox="0 0 105 35" fill="none">
  <path d="M50.9537 11.8463V12.323C50.9537 13.1543 50.8559 13.9001 50.6603 14.548C50.4647 15.147 50.1346 15.7216 49.6823 16.235C48.7165 17.323 47.4818 17.9221 46.0148 17.9954C46.0026 17.9954 45.9903 17.9954 45.9781 17.9954C45.9048 17.9954 45.8436 17.9954 45.7703 17.9954C45.6847 17.9954 45.5869 17.9954 45.5013 17.9832C45.4647 17.9832 45.428 17.9832 45.3913 17.9832C45.2691 17.9832 45.159 17.971 45.0368 17.9465C44.9879 17.9465 44.9512 17.9343 44.9145 17.9343C44.829 17.9221 44.7434 17.9098 44.6578 17.8854C44.6334 17.8854 44.6089 17.8732 44.5845 17.8732C44.4867 17.8609 44.3767 17.8243 44.2789 17.7998H44.2666C44.1688 17.7754 44.071 17.7387 43.9732 17.7142C43.9366 17.702 43.8999 17.6898 43.8632 17.6776C43.8021 17.6653 43.7532 17.6409 43.6921 17.6164C43.6309 17.592 43.5698 17.5675 43.5209 17.5431C43.4965 17.5309 43.4598 17.5186 43.4231 17.4942C43.3498 17.4575 43.2764 17.4208 43.1908 17.3842C43.093 17.3353 42.9952 17.2864 42.8974 17.2252C42.005 16.6996 41.3082 16.0027 40.7825 15.1103C40.7336 15.037 40.6969 14.9636 40.6603 14.8903C40.6236 14.8291 40.5869 14.7558 40.5625 14.6947C40.5502 14.6824 40.538 14.658 40.538 14.6335C40.5136 14.5724 40.4769 14.5113 40.4524 14.4624C40.3669 14.2668 40.2935 14.0712 40.2324 13.8634C40.2079 13.79 40.1835 13.7167 40.1713 13.6433C40.1468 13.5211 40.1101 13.3988 40.0857 13.2766C40.0735 13.191 40.0612 13.1054 40.049 13.0199C40.0368 12.9587 40.0368 12.8854 40.0246 12.8243C40.0123 12.7509 40.0123 12.6898 40.0123 12.6164V12.6042C40.0001 12.482 40.0001 12.3597 40.0001 12.2252V12.2008C40.0001 12.0785 40.0001 11.9685 40.0123 11.8463C40.0123 11.834 40.0123 11.8218 40.0123 11.7974C40.0123 11.7362 40.0246 11.6629 40.0246 11.6018C40.0246 11.5406 40.0368 11.4795 40.049 11.4184C40.049 11.4062 40.049 11.3817 40.049 11.3695C40.0735 11.1983 40.1101 11.0394 40.1468 10.8683C40.1713 10.7827 40.1957 10.6971 40.2202 10.5993C40.2446 10.526 40.2691 10.4404 40.2935 10.367C40.2935 10.3548 40.3057 10.3304 40.3057 10.3181C40.3302 10.2448 40.3669 10.1592 40.3913 10.0736C40.4158 10.0003 40.4524 9.91472 40.4891 9.84137C40.5625 9.658 40.6603 9.48685 40.7581 9.3157C41.2715 8.42328 41.9806 7.70201 42.873 7.17633C43.2642 6.94406 43.6676 6.76069 44.0833 6.62621C44.1444 6.61399 44.2055 6.58954 44.2666 6.57731C44.3277 6.56509 44.3889 6.55286 44.45 6.52841C44.5233 6.51619 44.5845 6.50397 44.6578 6.47952C44.7434 6.46729 44.829 6.44284 44.9268 6.43061C44.939 6.43061 44.939 6.43061 44.9512 6.43061C45.1346 6.40616 45.3302 6.38171 45.5258 6.38171C45.6114 6.38171 45.6847 6.38171 45.7703 6.38171C45.8559 6.38171 45.9292 6.38171 46.0148 6.38171C46.1493 6.38171 46.2715 6.39394 46.406 6.40617C46.6138 6.43062 46.8216 6.46729 47.0295 6.50396C47.0906 6.51619 47.1639 6.52841 47.2251 6.55286C47.2495 6.55286 47.2862 6.56509 47.3106 6.57731C47.384 6.58954 47.4451 6.61399 47.5185 6.63844C47.5674 6.65066 47.6285 6.66289 47.6774 6.68734C47.7018 6.69956 47.7385 6.69956 47.763 6.71179C47.8363 6.73624 47.9097 6.76069 47.9708 6.79736C48.0197 6.80959 48.0564 6.83404 48.1053 6.85849C48.3009 6.94406 48.4842 7.04186 48.6798 7.15189C49.3889 7.56754 49.9757 8.10543 50.4524 8.75335L49.1566 10.0247L48.8265 10.3426C48.5209 9.79247 48.1053 9.35238 47.5796 9.03453C47.0539 8.71668 46.4549 8.54553 45.807 8.54553C45.159 8.54553 44.5722 8.70445 44.0344 9.03453C43.5087 9.3646 43.0808 9.8047 42.7752 10.3548C42.4696 10.9049 42.3106 11.5284 42.3106 12.213C42.3106 12.8732 42.4696 13.4844 42.7874 14.0345C43.1053 14.5969 43.5331 15.037 44.071 15.3548C44.6089 15.6849 45.2202 15.8438 45.8681 15.8438C46.5038 15.8438 47.0906 15.6849 47.6163 15.3548C48.1053 15.0492 48.4965 14.6458 48.7899 14.1446C48.851 13.9856 48.8877 13.8145 48.9121 13.6433H46.1859V11.8585L50.9537 11.8463Z" fill="#FA5D2B"></path>
  <path d="M60.5259 15.7456H56.8828L55.9904 17.8972H53.8633L58.8144 6.49133H58.9366L63.8877 17.8972H61.3816L60.5259 15.7456ZM59.8046 13.9241L58.741 11.2591L57.6408 13.9241H59.8046Z" fill="#FA5D2B"></path>
  <path d="M79.3645 6.46704V17.8851H77.2007V12.6529L73.6187 17.7384H73.5943L70.1469 12.9829V17.8851H68.0564V6.46704H68.0686L73.631 14.3521L79.3278 6.46704H79.3645Z" fill="#FA5D2B"></path>
  <path d="M92.2007 6.9192V9.00967H86.8828V11.3446H91.5894V13.4351H86.8828V15.8067H92.4085V17.885H84.719V6.90698H92.2007V6.9192Z" fill="#FA5D2B"></path>
  <path d="M101.479 8.77763C101.003 8.77763 100.636 8.87543 100.367 9.0588C100.098 9.24217 99.9758 9.53557 99.9758 9.91455C99.9758 10.2691 100.171 10.5747 100.55 10.8314C100.929 11.1004 101.443 11.3449 102.078 11.5894C102.592 11.7727 103.032 11.9928 103.411 12.2373C103.778 12.4818 104.083 12.8119 104.328 13.2397C104.572 13.6676 104.695 14.2055 104.695 14.8656C104.695 15.428 104.548 15.9537 104.255 16.4427C103.961 16.9194 103.533 17.3106 102.971 17.5918C102.409 17.873 101.724 18.0197 100.942 18.0197C100.281 18.0197 99.6335 17.9219 98.9856 17.7263C98.3376 17.5307 97.7386 17.2373 97.1763 16.8339L98.1298 15.1468C98.5088 15.428 98.9367 15.648 99.4257 15.8314C99.9147 16.0148 100.355 16.1004 100.734 16.1004C101.186 16.1004 101.589 16.0026 101.932 15.807C102.274 15.6114 102.445 15.2935 102.445 14.8534C102.445 14.2911 101.92 13.7899 100.856 13.3742C100.233 13.1297 99.7068 12.8852 99.2912 12.6529C98.8755 12.4207 98.5088 12.1028 98.2154 11.6749C97.9098 11.2471 97.7631 10.7092 97.7631 10.0612C97.7631 9.11993 98.0687 8.34975 98.6922 7.77518C99.3156 7.20061 100.135 6.88276 101.174 6.83386C101.993 6.83386 102.665 6.93166 103.215 7.11503C103.766 7.29841 104.291 7.55513 104.805 7.89743L103.986 9.5478C103.02 9.04657 102.188 8.77763 101.479 8.77763Z" fill="#FA5D2B"></path>
  <path d="M59.2667 25.6356V25.8678C59.2667 26.2835 59.2178 26.6502 59.12 26.9681C59.0222 27.2615 58.8633 27.5426 58.631 27.7994C58.1542 28.3373 57.543 28.6307 56.8217 28.6673C56.8217 28.6673 56.8095 28.6673 56.7973 28.6673C56.7606 28.6673 56.7239 28.6673 56.6995 28.6673C56.6506 28.6673 56.6139 28.6673 56.565 28.6673C56.5405 28.6673 56.5283 28.6673 56.5039 28.6673C56.4427 28.6673 56.3816 28.6551 56.3327 28.6551C56.3083 28.6551 56.296 28.6551 56.2716 28.6429C56.2349 28.6429 56.186 28.6307 56.1493 28.6184C56.1371 28.6184 56.1249 28.6184 56.1127 28.6062C56.0638 28.594 56.0149 28.5818 55.966 28.5695C55.966 28.5695 55.966 28.5695 55.9537 28.5695C55.9048 28.5573 55.8559 28.5451 55.807 28.5206C55.7826 28.5206 55.7704 28.5084 55.7459 28.4962C55.7215 28.484 55.6848 28.4717 55.6603 28.4595C55.6359 28.4473 55.5992 28.4351 55.5748 28.4228C55.5625 28.4106 55.5381 28.4106 55.5259 28.3984C55.4892 28.3862 55.4525 28.3617 55.4159 28.3373C55.367 28.3128 55.318 28.2884 55.2691 28.2639C54.8291 28.0072 54.4868 27.6649 54.23 27.2248C54.2056 27.1881 54.1934 27.1514 54.1689 27.1148C54.1567 27.0781 54.1322 27.0536 54.12 27.017C54.12 27.0047 54.1078 27.0047 54.1078 26.9925C54.0956 26.9681 54.0833 26.9314 54.0711 26.9069C54.0344 26.8091 53.9978 26.7113 53.9611 26.6135C53.9489 26.5769 53.9366 26.5402 53.9366 26.5035C53.9244 26.4424 53.9122 26.3813 53.9 26.3201C53.8877 26.2712 53.8877 26.2346 53.8877 26.1979C53.8877 26.1612 53.8755 26.1368 53.8755 26.1001C53.8755 26.0634 53.8633 26.039 53.8633 26.0023V25.9901C53.8633 25.9289 53.8633 25.8678 53.8633 25.8067V25.7945C53.8633 25.7334 53.8633 25.6722 53.8633 25.6233C53.8633 25.6111 53.8633 25.6111 53.8633 25.5989C53.8633 25.5622 53.8633 25.5378 53.8755 25.5011C53.8755 25.4766 53.8755 25.44 53.8877 25.4033C53.8877 25.3911 53.8877 25.3911 53.8877 25.3788C53.9 25.2933 53.9122 25.2077 53.9366 25.1343C53.9489 25.0854 53.9611 25.0488 53.9733 24.9999C53.9855 24.9632 53.9978 24.9265 54.01 24.8898C54.01 24.8776 54.01 24.8776 54.0222 24.8654C54.0344 24.8287 54.0467 24.792 54.0711 24.7431C54.0833 24.7065 54.0956 24.6698 54.12 24.6331C54.1567 24.5475 54.2056 24.462 54.2545 24.3764C54.5112 23.9363 54.8657 23.5818 55.3058 23.325C55.5014 23.215 55.697 23.1172 55.9048 23.0561C55.9293 23.0439 55.966 23.0439 55.9904 23.0316C56.0149 23.0194 56.0515 23.0194 56.076 23.0072C56.1127 22.995 56.1493 22.995 56.1738 22.9827C56.2105 22.9705 56.2594 22.9705 56.3083 22.9583H56.3205C56.4183 22.9461 56.5039 22.9338 56.6017 22.9338C56.6383 22.9338 56.6872 22.9338 56.7239 22.9338C56.7606 22.9338 56.7973 22.9338 56.8462 22.9338C56.9073 22.9338 56.9684 22.9461 57.0418 22.9461C57.1396 22.9583 57.2496 22.9705 57.3474 22.995C57.3841 22.995 57.4085 23.0072 57.4452 23.0194C57.4574 23.0194 57.4696 23.0194 57.4819 23.0316C57.5185 23.0439 57.543 23.0561 57.5797 23.0561C57.6041 23.0683 57.6286 23.0683 57.653 23.0805C57.6652 23.0805 57.6775 23.0928 57.7019 23.0928C57.7386 23.105 57.7753 23.1172 57.7997 23.1417C57.8242 23.1539 57.8486 23.1539 57.8608 23.1661C57.9586 23.2028 58.0442 23.2639 58.142 23.3128C58.4843 23.5206 58.7777 23.7774 59.0222 24.1074L58.3743 24.7309L58.2154 24.8898C58.0687 24.6209 57.8608 24.4008 57.6041 24.2419C57.3474 24.083 57.054 23.9974 56.7239 23.9974C56.4061 23.9974 56.1127 24.083 55.8437 24.2419C55.587 24.4008 55.3792 24.6209 55.2202 24.9021C55.0735 25.171 54.988 25.4766 54.988 25.8189C54.988 26.149 55.0613 26.4424 55.2202 26.7236C55.3792 26.9925 55.587 27.2126 55.8559 27.3715C56.1249 27.5304 56.4183 27.616 56.7484 27.616C57.0662 27.616 57.3474 27.5426 57.6163 27.3715C57.8608 27.2248 58.0564 27.017 58.1909 26.7725C58.2154 26.6991 58.2398 26.6135 58.252 26.528H56.9073V25.6478L59.2667 25.6356Z" fill="#FA5D2B"></path>
  <path d="M62.5796 23.2029V27.5916H65.1224V28.6185H61.5038V23.2029H62.5796Z" fill="#FA5D2B"></path>
  <path d="M67.714 24.5475C67.9585 24.1196 68.3008 23.7773 68.7165 23.5328C69.1321 23.2883 69.5967 23.1538 70.0979 23.1538C70.5869 23.1538 71.0514 23.2761 71.4793 23.5328C71.9072 23.7895 72.2373 24.1318 72.494 24.5475C72.7507 24.9631 72.873 25.4276 72.873 25.9289C72.873 26.4301 72.7507 26.8946 72.494 27.3103C72.2373 27.7382 71.9072 28.0682 71.4793 28.3127C71.0514 28.5572 70.5991 28.6795 70.0979 28.6795C69.5967 28.6795 69.1321 28.5572 68.7165 28.3127C68.3008 28.0682 67.9585 27.7259 67.714 27.3103C67.4695 26.8824 67.3473 26.4301 67.3473 25.9289C67.3473 25.4276 67.4695 24.9631 67.714 24.5475ZM68.6676 26.7846C68.8143 27.0536 69.0221 27.2614 69.2788 27.4081C69.5356 27.567 69.8167 27.6404 70.1346 27.6404C70.4402 27.6404 70.7214 27.567 70.9659 27.4081C71.2104 27.2492 71.4182 27.0413 71.5527 26.7846C71.6994 26.5279 71.7727 26.2345 71.7727 25.9166C71.7727 25.5988 71.6994 25.2932 71.5527 25.0364C71.406 24.7675 71.2104 24.5597 70.9536 24.413C70.6969 24.2541 70.4158 24.1807 70.1101 24.1807C69.8045 24.1807 69.5233 24.2541 69.2666 24.413C69.0099 24.5719 68.8143 24.7797 68.6676 25.0364C68.5209 25.3054 68.4475 25.5988 68.4475 25.9166C68.4475 26.2345 68.5209 26.5157 68.6676 26.7846Z" fill="#FA5D2B"></path>
  <path d="M79.0833 26.2836C79.2422 26.4914 79.3278 26.7481 79.3278 27.0171C79.3278 27.5672 79.1444 27.9706 78.7899 28.2273C78.4354 28.4841 77.9831 28.6185 77.4452 28.6185H75.6359V23.2029H77.2251C77.7997 23.2029 78.252 23.3251 78.5821 23.5574C78.9122 23.7897 79.0711 24.132 79.0711 24.5721C79.0711 24.841 79.0099 25.0733 78.8999 25.2811C78.7899 25.4889 78.631 25.6479 78.4232 25.7701C78.7043 25.8924 78.9244 26.0635 79.0833 26.2836ZM76.6994 25.4156H77.3474C77.543 25.4156 77.6897 25.3545 77.7997 25.2322C77.9097 25.11 77.9586 24.9633 77.9586 24.7921C77.9586 24.6087 77.8975 24.4743 77.7752 24.3765C77.653 24.2787 77.4818 24.2298 77.2618 24.2298H76.6872L76.6994 25.4156ZM77.9831 27.4694C78.142 27.3716 78.2153 27.2127 78.2153 27.0171C78.2153 26.6381 77.9097 26.4425 77.2985 26.4425H76.6872V27.6161H77.3718C77.6285 27.6283 77.8364 27.5794 77.9831 27.4694Z" fill="#FA5D2B"></path>
  <path d="M84.6823 27.5549H82.8852L82.4451 28.6185H81.3938L83.8388 22.9828H83.8999L86.3449 28.6185H85.098L84.6823 27.5549ZM84.3278 26.6625L83.8021 25.3422L83.252 26.6625H84.3278Z" fill="#FA5D2B"></path>
  <path d="M89.8657 23.2029V27.5916H92.4085V28.6185H88.7899V23.2029H89.8657Z" fill="#FA5D2B"></path>
  <path d="M35.1223 10.5625L41.0147 0.342407L1.07581 0.354633L21.0514 35.0001L34.0465 12.4329L18.1907 12.4451L21.0514 17.4206H25.4768L21.0514 25.1101L9.63326 5.31796L32.445 5.34241L29.4377 10.5625H35.1223Z" fill="#FA5D2B"></path>
  <path d="M34.8901 10.269L40.8559 0L0.403564 0.0122257L20.6236 34.8411L33.8021 12.1638L17.7263 12.176L20.6236 17.1638H25.1224L20.6236 24.9022L9.07105 5L32.1762 5.02445L29.1199 10.269H34.8901Z" fill="#FA5D2B"></path>
  <path d="M39.0587 1.25928L34.5232 9.10769L33.3374 9.11991L37.2983 2.27395H4.36429L20.8435 30.8192L30.1467 14.5845L20.6968 14.56L20.11 13.5453L31.9193 13.5698L20.8435 32.8485L2.59167 1.25928H39.0587Z" fill="#FA5D2B"></path>
</svg>
